<svg xmlns="http://www.w3.org/2000/svg" viewBox="0 0 80 80" height="100%">
    <path d="M 40 7 C 32.28 7 26 13.28 26 21 L 26 34 L 17 34 L 17 32 L 15 32 L 15 38 L 17 38 L 17 36 L 19 36 L 19 41.839844 C 19 52.433209 26.826488 61.2241 37 62.753906 L 37 67 L 31 67 C 28.794 67 27 68.794 27 71 L 27 73 L 40 73 L 49 73 L 49 71 L 40 71 L 29 71 C 29 69.897 29.897 69 31 69 L 40 69 L 43 69 L 49 69 L 49 67 L 43 67 L 43 62.744141 C 45.11736 62.41852 47.133023 61.780606 49 60.878906 L 49 58.654297 C 46.321 60.118297 43.257 60.963234 40 60.990234 C 29.509 60.903234 21 52.350844 21 41.839844 L 21 36 L 26 36 L 26 42 C 26 49.72 32.28 56 40 56 C 43.426 56 46.564 54.758031 49 52.707031 L 49 49.910156 C 46.799 52.411156 43.585 54 40 54 C 33.383 54 28 48.617 28 42 L 28 33 A 1 1 0 0 0 29 32 A 1 1 0 0 0 28 31 L 28 27 A 1 1 0 0 0 29 26 A 1 1 0 0 0 28 25 L 28 21 A 1 1 0 0 0 29 20 A 1 1 0 0 0 28.177734 19.017578 C 29.12707 13.342675 34.0596 9 40 9 C 45.939738 9 50.872145 13.341653 51.822266 19.015625 A 1 1 0 0 0 51 20 A 1 1 0 0 0 52 21 L 52 25 A 1 1 0 0 0 51 26 A 1 1 0 0 0 52 27 L 52 31 A 1 1 0 0 0 51 32 A 1 1 0 0 0 52 33 L 52 42 C 52 43.139 51.82925 44.238203 51.53125 45.283203 C 51.99825 45.099203 52.497953 45 53.001953 45 C 53.220953 45 53.437344 45.024547 53.652344 45.060547 C 53.873344 44.074547 54 43.052 54 42 L 54 36 L 59 36 L 59 41.839844 C 59 43.762844 58.708687 45.617141 58.179688 47.369141 L 59.947266 48.390625 C 60.622266 46.325625 61 44.127844 61 41.839844 L 61 36 L 63 36 L 63 38 L 65 38 L 65 32 L 63 32 L 63 34 L 54 34 L 54 21 C 54 13.28 47.72 7 40 7 z M 37 10 A 1 1 0 0 0 36 11 A 1 1 0 0 0 37 12 A 1 1 0 0 0 38 11 A 1 1 0 0 0 37 10 z M 43 10 A 1 1 0 0 0 42 11 A 1 1 0 0 0 43 12 A 1 1 0 0 0 44 11 A 1 1 0 0 0 43 10 z M 34 13 A 1 1 0 0 0 33 14 A 1 1 0 0 0 34 15 A 1 1 0 0 0 35 14 A 1 1 0 0 0 34 13 z M 40 13 A 1 1 0 0 0 39 14 A 1 1 0 0 0 40 15 A 1 1 0 0 0 41 14 A 1 1 0 0 0 40 13 z M 46 13 A 1 1 0 0 0 45 14 A 1 1 0 0 0 46 15 A 1 1 0 0 0 47 14 A 1 1 0 0 0 46 13 z M 31 16 A 1 1 0 0 0 30 17 A 1 1 0 0 0 31 18 A 1 1 0 0 0 32 17 A 1 1 0 0 0 31 16 z M 37 16 A 1 1 0 0 0 36 17 A 1 1 0 0 0 37 18 A 1 1 0 0 0 38 17 A 1 1 0 0 0 37 16 z M 43 16 A 1 1 0 0 0 42 17 A 1 1 0 0 0 43 18 A 1 1 0 0 0 44 17 A 1 1 0 0 0 43 16 z M 49 16 A 1 1 0 0 0 48 17 A 1 1 0 0 0 49 18 A 1 1 0 0 0 50 17 A 1 1 0 0 0 49 16 z M 34 19 A 1 1 0 0 0 33 20 A 1 1 0 0 0 34 21 A 1 1 0 0 0 35 20 A 1 1 0 0 0 34 19 z M 40 19 A 1 1 0 0 0 39 20 A 1 1 0 0 0 40 21 A 1 1 0 0 0 41 20 A 1 1 0 0 0 40 19 z M 46 19 A 1 1 0 0 0 45 20 A 1 1 0 0 0 46 21 A 1 1 0 0 0 47 20 A 1 1 0 0 0 46 19 z M 31 22 A 1 1 0 0 0 30 23 A 1 1 0 0 0 31 24 A 1 1 0 0 0 32 23 A 1 1 0 0 0 31 22 z M 37 22 A 1 1 0 0 0 36 23 A 1 1 0 0 0 37 24 A 1 1 0 0 0 38 23 A 1 1 0 0 0 37 22 z M 43 22 A 1 1 0 0 0 42 23 A 1 1 0 0 0 43 24 A 1 1 0 0 0 44 23 A 1 1 0 0 0 43 22 z M 49 22 A 1 1 0 0 0 48 23 A 1 1 0 0 0 49 24 A 1 1 0 0 0 50 23 A 1 1 0 0 0 49 22 z M 34 25 A 1 1 0 0 0 33 26 A 1 1 0 0 0 34 27 A 1 1 0 0 0 35 26 A 1 1 0 0 0 34 25 z M 40 25 A 1 1 0 0 0 39 26 A 1 1 0 0 0 40 27 A 1 1 0 0 0 41 26 A 1 1 0 0 0 40 25 z M 46 25 A 1 1 0 0 0 45 26 A 1 1 0 0 0 46 27 A 1 1 0 0 0 47 26 A 1 1 0 0 0 46 25 z M 31 28 A 1 1 0 0 0 30 29 A 1 1 0 0 0 31 30 A 1 1 0 0 0 32 29 A 1 1 0 0 0 31 28 z M 37 28 A 1 1 0 0 0 36 29 A 1 1 0 0 0 37 30 A 1 1 0 0 0 38 29 A 1 1 0 0 0 37 28 z M 43 28 A 1 1 0 0 0 42 29 A 1 1 0 0 0 43 30 A 1 1 0 0 0 44 29 A 1 1 0 0 0 43 28 z M 49 28 A 1 1 0 0 0 48 29 A 1 1 0 0 0 49 30 A 1 1 0 0 0 50 29 A 1 1 0 0 0 49 28 z M 34 31 A 1 1 0 0 0 33 32 A 1 1 0 0 0 34 33 A 1 1 0 0 0 35 32 A 1 1 0 0 0 34 31 z M 40 31 A 1 1 0 0 0 39 32 A 1 1 0 0 0 40 33 A 1 1 0 0 0 41 32 A 1 1 0 0 0 40 31 z M 46 31 A 1 1 0 0 0 45 32 A 1 1 0 0 0 46 33 A 1 1 0 0 0 47 32 A 1 1 0 0 0 46 31 z M 31 34 A 1 1 0 0 0 30 35 A 1 1 0 0 0 31 36 A 1 1 0 0 0 32 35 A 1 1 0 0 0 31 34 z M 37 34 A 1 1 0 0 0 36 35 A 1 1 0 0 0 37 36 A 1 1 0 0 0 38 35 A 1 1 0 0 0 37 34 z M 43 34 A 1 1 0 0 0 42 35 A 1 1 0 0 0 43 36 A 1 1 0 0 0 44 35 A 1 1 0 0 0 43 34 z M 49 34 A 1 1 0 0 0 48 35 A 1 1 0 0 0 49 36 A 1 1 0 0 0 50 35 A 1 1 0 0 0 49 34 z M 40 42 A 2 2 0 0 0 38 44 A 2 2 0 0 0 40 46 A 2 2 0 0 0 42 44 A 2 2 0 0 0 40 42 z M 53 48 C 52.827375 48.000125 52.655 48.045766 52.5 48.134766 C 52.19 48.312766 52 48.643 52 49 L 52 79 C 52 79.357 52.19 79.687234 52.5 79.865234 C 52.655 79.954234 52.827 80 53 80 C 53.172 80 53.345 79.955234 53.5 79.865234 L 79.5 64.865234 C 79.809 64.687234 80 64.357 80 64 C 80 63.643 79.809 63.312766 79.5 63.134766 L 53.5 48.134766 C 53.3455 48.045266 53.172625 47.999875 53 48 z M 54 50.730469 L 76.998047 64 L 54 77.269531 L 54 50.730469 z M 39 63 L 41 63 L 41 67 L 40 67 L 39 67 L 39 63 z" style="color:white" fill="currentColor"></path>
</svg>