<svg xmlns="http://www.w3.org/2000/svg" xmlns:xlink="http://www.w3.org/1999/xlink" version="1.1" x="0px" y="0px" viewBox="0 0 100 100" style="enable-background:new 0 0 100 100;" xml:space="preserve" height="100%"><style type="text/css" style="color:#653ed7;" fill="currentColor">
	.st0{fill-rule:evenodd;clip-rule:evenodd;}
</style><path class="st0" d="M49.5,89.5c-22.1,0-40-17.9-40-40c0-22.1,17.9-40,40-40c22.1,0,40,17.9,40,40C89.5,71.6,71.6,89.5,49.5,89.5z   M49.5,15.5c-18.8,0-34,15.2-34,34c0,18.8,15.2,34,34,34c18.8,0,34-15.2,34-34C83.5,30.7,68.3,15.5,49.5,15.5z M46.3,62.6  c-1.2,1.2-3.1,1.2-4.3,0l-10.7-11c-1.2-1.2-1.2-3.2,0-4.4c1.2-1.2,3.1-1.2,4.3,0l8.5,8.8l19.2-19.6c1.2-1.2,3.1-1.2,4.3,0  c1.2,1.2,1.2,3.2,0,4.4L46.3,62.6z" style="color:#653ed7;" fill="currentColor"></path></svg>